<?xml version="1.0" encoding="utf-8"?>
<!-- Generator: Adobe Illustrator 15.1.0, SVG Export Plug-In . SVG Version: 6.00 Build 0)  -->
<!DOCTYPE svg PUBLIC "-//W3C//DTD SVG 1.1//EN" "http://www.w3.org/Graphics/SVG/1.1/DTD/svg11.dtd">
<svg version="1.1" id="Layer_1" xmlns="http://www.w3.org/2000/svg" xmlns:xlink="http://www.w3.org/1999/xlink" x="0px" y="0px"
	 width="373.986px" height="369.039px" viewBox="0 0 373.986 369.039" enable-background="new 0 0 373.986 369.039"
	 xml:space="preserve">
<circle fill="#3B7941" cx="185.853" cy="181.491" r="181.491"/>
<path fill="#FFFFFF" d="M260.054,124.014c85.222-92.344-57.101-81.412-57.101-81.412c-64.797-10.631-79.926,20.976-83.854,35.42
	c-0.917,3.372,6.438,26.324,6.251,27.069c-3.402-2.784-18.441-12.25-22.628-14.393c-13.562-6.944-26.667,7.501-26.667,7.501
	c-24.032,17.476,2.607,70.17,10.674,107.099c-1.942,0.359-4.802,1.443-6.191,3.793c-8.5,10.664,10.333,23.832,10.333,23.832
	s0.786,3.412,3.296,5.066c0.182,0.604,0.35,1.16,0.499,1.645l-0.13,0.83c15.061,39.086,52.972,66.818,97.363,66.818
	c57.61,0,104.313-46.701,104.313-104.312C296.213,171.416,282.193,143.142,260.054,124.014z M90.517,215.423l2.25,6.5
	C92.767,221.923,83.517,221.673,90.517,215.423z M133.556,161.936c-0.016,1.234-1.021,2.224-2.251,2.224c-0.01,0-0.02,0-0.029-0.001
	c-1.243-0.016-2.238-1.036-2.224-2.279c0.006-0.524,0.443-12.828,24.843-12.828c1.244,0,2.252,1.008,2.252,2.252
	c0,1.244-1.008,2.252-2.252,2.252C134.213,153.555,133.557,161.852,133.556,161.936z M153.894,193.21
	c-5.353,0-9.691-4.338-9.691-9.692c0-5.352,4.339-9.691,9.691-9.691c5.354,0,9.692,4.34,9.692,9.691
	C163.586,188.873,159.247,193.21,153.894,193.21z M203.816,269.484c-0.227,1.486-1.506,2.549-2.965,2.549
	c-0.149,0-0.303-0.01-0.457-0.033l-24.559-3.754c-1.64-0.252-2.767-1.783-2.516-3.424c0.251-1.639,1.785-2.764,3.424-2.514
	l24.559,3.754C202.941,266.312,204.068,267.843,203.816,269.484z M225.482,232.917c-0.172,0.742-4.444,18.037-29.211,18.037
	c-0.205,0-0.408,0-0.614-0.002c-2.695-0.031-4.855-2.24-4.824-4.936c0.03-2.678,2.21-4.825,4.879-4.825c0.019,0,0.038,0,0.057,0
	c0.164,0.003,0.33,0.003,0.49,0.003c13.987,0,18.264-6.93,19.373-9.514l-16.473-60.473c-0.707-2.6,0.825-5.283,3.427-5.99
	c2.597-0.709,5.282,0.825,5.991,3.426l16.858,61.895C225.646,231.316,225.663,232.132,225.482,232.917z M249.242,190.207
	c-5.354,0-9.693-4.338-9.693-9.69c0-5.353,4.34-9.693,9.693-9.693c5.353,0,9.691,4.34,9.691,9.693
	C258.934,185.869,254.595,190.207,249.242,190.207z M266.627,159.041c-0.51,0-1.023-0.172-1.444-0.525
	c-15.036-12.592-20.95-6.658-21.007-6.596c-0.811,0.943-2.215,1.032-3.159,0.221c-0.943-0.811-1.034-2.251-0.224-3.194
	c0.342-0.397,8.576-9.55,27.281,6.116c0.952,0.799,1.078,2.219,0.28,3.173C267.91,158.768,267.271,159.041,266.627,159.041z"/>
</svg>
