<?xml version="1.0" encoding="utf-8"?>
<!-- Generator: Adobe Illustrator 15.0.0, SVG Export Plug-In . SVG Version: 6.00 Build 0)  -->
<!DOCTYPE svg PUBLIC "-//W3C//DTD SVG 1.1//EN" "http://www.w3.org/Graphics/SVG/1.1/DTD/svg11.dtd">
<svg version="1.1" id="Layer_1" xmlns="http://www.w3.org/2000/svg" xmlns:xlink="http://www.w3.org/1999/xlink" x="0px" y="0px"
	 width="297.641px" height="352.012px" viewBox="0 0 297.641 352.012" enable-background="new 0 0 297.641 352.012"
	 xml:space="preserve">
<g>
	<path fill="#BBBBBC" d="M148.798,59.186c-77.556,0-140.429,62.875-140.429,140.43c0,77.558,62.874,140.432,140.429,140.432
		c77.558,0,140.431-62.873,140.431-140.432C289.229,122.059,226.355,59.186,148.798,59.186L148.798,59.186z"/>
	<path fill="#2D2D2D" d="M234.694,87.095c-29.621-14.027-94.042-33.037-164.94,18.525c0,0-22.956,6.518-12.361,88.904v20.58h-11.08
		l-6.578-20.58c0,0-29.596-11.206-17.446,38.239l-2.703,17.329c20.276,52.618,71.314,89.954,131.074,89.954
		c77.558,0,140.432-62.873,140.432-140.432C291.091,153.573,268.93,112.705,234.694,87.095z M72.115,144.371
		c-0.022,1.662-1.375,2.994-3.031,2.994c-0.014,0-0.025,0-0.038,0c-1.675-0.021-3.017-1.395-2.996-3.07
		c0.01-0.705,0.597-17.269,33.446-17.269c1.675,0,3.032,1.358,3.032,3.032c0,1.675-1.356,3.033-3.032,3.033
		C73,133.091,72.116,144.259,72.115,144.371z M99.496,186.476c-7.208,0-13.05-5.84-13.05-13.048c0-7.207,5.842-13.047,13.05-13.047
		c7.206,0,13.047,5.842,13.047,13.047C112.543,180.635,106.702,186.476,99.496,186.476z M161.734,301.452
		c-0.304,2-2.027,3.431-3.99,3.431c-0.205,0-0.409-0.014-0.615-0.046l-33.063-5.052c-2.208-0.341-3.723-2.402-3.385-4.609
		c0.337-2.208,2.404-3.724,4.606-3.385l33.063,5.055C160.555,297.183,162.072,299.243,161.734,301.452z M195.871,239.931
		c-0.231,1-5.985,24.283-39.326,24.284c-0.275,0-0.549-0.001-0.827-0.003c-3.629-0.043-6.538-3.018-6.494-6.646
		c0.042-3.603,2.975-6.496,6.566-6.496c0.025,0,0.053,0,0.075,0c0.222,0.003,0.445,0.003,0.662,0.003
		c18.83,0,24.586-9.329,26.079-12.808l-22.177-81.41c-0.95-3.5,1.113-7.112,4.614-8.064c3.495-0.954,7.111,1.111,8.066,4.611
		l22.695,83.326C196.091,237.776,196.113,238.875,195.871,239.931z M227.856,182.433c-7.207,0-13.048-5.841-13.048-13.049
		c0-7.206,5.842-13.047,13.048-13.047s13.048,5.841,13.048,13.047C240.905,176.592,235.063,182.433,227.856,182.433z
		 M251.261,140.477c-0.686,0-1.377-0.233-1.945-0.708c-20.241-16.952-28.203-8.962-28.279-8.88c-1.091,1.271-2.98,1.391-4.255,0.299
		c-1.27-1.092-1.39-3.031-0.299-4.301c0.459-0.535,11.544-12.857,36.727,8.234c1.283,1.074,1.453,2.988,0.378,4.271
		C252.989,140.107,252.127,140.477,251.261,140.477z"/>
	<path fill="#FFFFFF" d="M149.817,54.989c0,0-83.2-3.99-126.346,76.103c0,0-29.207,54.411-8.994,86.08
		c0,0,64.213,24.237,82.515,26.258v81.311c0,0,10.216,3.806,25.501,6.63v-39.129c0-1.675,1.359-3.032,3.032-3.032
		c1.674,0,3.033,1.357,3.033,3.032v40.151c4.431,0.672,9.183,1.227,14.151,1.575v-38.693c0-1.675,1.357-3.033,3.031-3.033
		c1.674,0,3.032,1.358,3.032,3.033v39.006c4.599,0.153,9.338,0.105,14.153-0.204v-38.803c0-1.676,1.358-3.033,3.03-3.033
		c1.673,0,3.032,1.357,3.032,3.033v38.277c4.699-0.522,9.437-1.321,14.149-2.447v-37.853c0-1.675,1.357-3.031,3.033-3.031
		c1.674,0,3.031,1.356,3.031,3.031v36.207c7.902-2.403,15.654-5.824,22.94-10.564c0.858-40.933,1.532-68.056,1.532-68.056
		s63.532-29.314,76.573-55.422C290.246,195.417,291.473,63.973,149.817,54.989z M96.992,195.292
		c-14.335,0-25.956-11.622-25.956-25.957c0-14.335,11.621-25.956,25.956-25.956c14.337,0,25.957,11.621,25.957,25.956
		C122.948,183.671,111.329,195.292,96.992,195.292z M181.49,236.874c-21.396,13.472-38.035-3.541-38.035-3.541
		c-3.564-12.656,11.184-63.809,11.184-63.809c9.998-23.376,20.907,0,20.907,0C201.377,223.839,181.49,236.874,181.49,236.874z
		 M225.97,190.759c-14.334,0-25.958-11.622-25.958-25.957c0-14.335,11.624-25.958,25.958-25.958
		c14.337,0,25.958,11.622,25.958,25.958C251.928,179.137,240.307,190.759,225.97,190.759z"/>
	<g>
		<path fill="#231F20" d="M148.798,345.43c-80.401,0-145.815-65.412-145.815-145.814c0-80.402,65.414-145.813,145.815-145.813
			s145.815,65.412,145.815,145.813C294.614,280.018,229.199,345.43,148.798,345.43z M148.798,64.572
			c-74.464,0-135.045,60.58-135.045,135.043c0,74.465,60.58,135.045,135.045,135.045c74.465,0,135.046-60.58,135.046-135.045
			C283.844,125.152,223.263,64.572,148.798,64.572z"/>
	</g>
	<g>
		<path fill="#151928" d="M7.864,174.904c0,0,84.526-133.413,240.176-78.833c0,0-34.339-94.032-106.834-90.653
			C72.982,8.544-5.312,30.178,7.864,174.904z"/>
		<g>
			<g>
				<path fill="#991D20" d="M140.304,82.982c-5.59,1.705-9.873-1.363-10.052-1.516c-0.636-0.42-1.286-0.531-1.955-0.317
					c-1.033,0.329-1.82,1.354-1.826,1.365c-0.033,0.042-0.064,0.083-0.1,0.123c-2.113,2.283-4.19,3.729-6.178,4.282
					c-3.091,0.856-4.975-0.691-5.483-1.182c-1.348-0.665-2.788-1.656-2.498-3.055c0.294-1.401,2.096-1.885,2.642-2.014
					c0.077-0.019,0.152-0.026,0.227-0.026c0.941-0.003,1.821-0.111,2.624-0.319c5.059-1.34,5.841-5.989,5.935-6.707
					c-0.532-4.382-1.065-8.765-1.597-13.15c-0.105-0.98-0.44-1.646-0.994-1.997c-0.805-0.506-1.888-0.246-1.898-0.244
					c-0.2,0.052-0.401,0.047-0.58-0.019c-1.272-0.467-1.981-1.244-2.107-2.275c-0.203-1.641,1.237-3.131,1.402-3.301
					c2.149-2.24,2.651-3.237,2.765-3.533c-0.019-0.056-0.033-0.116-0.039-0.176c-0.627-5.167-1.253-10.34-1.877-15.517
					c-0.062-0.517-0.206-1.676-2.874-1.027c-1.533,0.367-3.012,1.101-3.027,1.107c-0.086,0.044-0.178,0.075-0.272,0.093
					c-0.009,0.001-0.02,0.003-0.03,0.004c-1.976,0.331-3.319-0.109-3.994-1.204c-1.277-2.079,0.678-5.386,1.083-6.043
					c0.978-1.543,2.849-2.553,5.568-3.178c2.556-0.585,4.981-0.65,5.084-0.65c0.196-0.003,0.378,0.051,0.527,0.158
					c1.363,0.982,2.606,1.333,3.598,1.031c0.622-0.19,0.948-0.582,0.95-0.585c0.062-0.087,0.137-0.165,0.218-0.234
					c2.443-2.063,4.9-3.525,7.301-4.303c5.151-1.679,8.433,0.355,9.078,0.816c6.775,2.598,7.886,8.83,8.06,10.346
					c1.415,1.496,2.01,1.889,2.156,1.967c0.36,0.071,0.652,0.351,0.726,0.736c0.101,0.517-0.221,1.042-0.732,1.217
					c-0.935,0.316-0.995,1.408-1,1.529c0.011,5.174-2.158,10.002-3.224,12.098c3.685,1.69,4.412,6.244,4.534,7.272
					c1.238,2.312,2.367,2.317,2.378,2.316c0.359-0.055,0.683,0.092,0.899,0.375c0.217,0.284,0.234,0.668,0.092,1.002
					c-0.529,1.26-1.058,2.526-1.588,3.8c-0.099,0.233-0.275,0.427-0.5,0.542c-1.15,0.602-1.297,3.101-1.188,4.208
					c0.008,0.087,0.006,0.174-0.009,0.263c-0.462,2.841-3.514,9.054-3.645,9.334c-0.036,0.07-0.075,0.136-0.122,0.197
					C146.24,79.898,143.395,82.051,140.304,82.982C140.305,82.982,140.305,82.982,140.304,82.982z M132.096,72.885
					c0.861,0.517,3.698,1.93,7.05,0.898c1.414-0.435,2.778-1.255,4.06-2.439c0.5-0.853,3.002-5.497-0.309-8.036
					c-0.232-0.176-0.35-0.467-0.319-0.787c0.031-0.321,0.208-0.632,0.479-0.842c-0.001,0-0.003,0-0.003,0
					c-0.008,0.002,0.281-0.298,0.337-0.994c0.002-0.038,0.007-0.077,0.016-0.115c0.254-1.367,0.376-3.168,0.129-3.697
					c-0.031-0.057-0.991-1.921-3.409-2.252c-0.131-0.019-0.251-0.063-0.357-0.134c-0.047-0.031-1.421-0.898-3.873-0.117
					c-1.771,0.563-3.651,1.838-5.595,3.77C130.9,63.056,131.499,67.971,132.096,72.885z M128.856,46.26
					c0.861,0.52,3.698,1.941,7.05,0.867c1.412-0.45,2.775-1.294,4.06-2.503c0.502-0.865,3.003-5.562-0.307-8.03
					c-0.233-0.171-0.35-0.459-0.32-0.781c0.03-0.319,0.208-0.636,0.477-0.851c0,0-0.001,0-0.002,0
					c-0.009,0.004,0.281-0.303,0.336-1.001c0.003-0.039,0.007-0.077,0.015-0.115c0.254-1.372,0.375-3.175,0.129-3.7
					c-0.029-0.057-0.989-1.896-3.407-2.192c-0.132-0.014-0.252-0.059-0.356-0.128c-0.049-0.032-1.422-0.876-3.874-0.082
					c-1.768,0.571-3.649,1.844-5.596,3.763C127.657,36.426,128.256,41.343,128.856,46.26z"/>
				<path fill="#FFFFFF" d="M115.288,24.147c2.456-0.565,4.823-0.618,4.823-0.617c1.926,1.395,3.389,1.449,4.389,1.144
					c1.063-0.326,1.601-1.062,1.601-1.062c2.559-2.167,4.864-3.416,6.865-4.062c5.235-1.706,8.367,0.768,8.367,0.771
					c7.341,2.735,7.675,9.98,7.675,9.927c2.364,2.523,2.866,2.455,2.866,2.448c-1.727,0.596-1.748,2.563-1.748,2.559
					c0.012,6.501-3.637,12.63-3.637,12.651c4.533,1.174,4.967,7.035,4.967,7.01c1.672,3.223,3.429,2.959,3.429,2.961
					c-0.529,1.268-1.058,2.542-1.588,3.82c-2.169,1.155-1.764,5.279-1.764,5.272c-0.442,2.723-3.544,9.049-3.544,9.064
					c-2.646,3.492-5.35,5.226-7.801,5.967c-5.183,1.581-9.237-1.396-9.237-1.409c-1.009-0.666-1.96-0.679-2.773-0.421
					c-1.471,0.469-2.476,1.839-2.476,1.839c-2.209,2.383-4.093,3.501-5.627,3.924c-3.063,0.847-4.711-1.061-4.711-1.056
					c-4.654-2.283-0.388-3.213-0.388-3.218c1.06-0.002,2.007-0.132,2.849-0.349c6.318-1.699,6.834-7.92,6.834-7.886
					c-0.537-4.416-1.073-8.833-1.61-13.253c-0.427-3.931-4.016-2.918-4.016-2.932c-3.223-1.192-0.501-3.938-0.501-3.938
					c3.906-4.116,3.064-4.678,3.064-4.665c-0.625-5.162-1.251-10.33-1.878-15.502c-0.26-2.155-2.189-2.169-3.997-1.745
					c-1.701,0.406-3.296,1.197-3.296,1.196c-6.062,0.882-1.97-5.766-1.97-5.744C111.398,25.344,113.369,24.596,115.288,24.147
					 M136.026,48.106c1.488-0.473,3.08-1.373,4.686-2.918c0-0.001,3.921-6.243-0.369-9.461c0,0,0.71-0.564,0.812-1.868
					c0,0,0.592-3.164,0.067-4.281c0,0.002-1.121-2.289-4.03-2.646c0,0-1.682-1.131-4.655-0.167c-1.758,0.567-3.967,1.87-6.548,4.519
					c0.637,5.229,1.272,10.458,1.908,15.685C127.898,46.974,131.475,49.569,136.026,48.106 M139.267,74.764
					c1.489-0.456,3.081-1.329,4.686-2.839c0-0.002,3.921-6.148-0.366-9.47c0,0,0.712-0.549,0.814-1.848c0,0,0.589-3.149,0.065-4.28
					c0,0.004-1.12-2.318-4.032-2.722c0,0.001-1.68-1.162-4.654-0.212c-1.759,0.56-3.968,1.861-6.547,4.533
					c0.637,5.224,1.271,10.447,1.908,15.669C131.14,73.606,134.714,76.17,139.267,74.764 M115.05,22.166L115.05,22.166
					c-3.029,0.693-5.146,1.847-6.291,3.64c-0.657,1.054-2.651,4.565-1.105,7.11c0.612,0.997,1.968,2.161,4.949,1.668
					c0.021-0.004,0.038-0.006,0.06-0.011c0.187-0.037,0.37-0.101,0.542-0.189c0.01-0.003,1.372-0.681,2.755-1.015
					c1.664-0.403,1.717,0.013,1.75,0.3c0.622,5.147,1.244,10.291,1.865,15.427c-0.224,0.378-0.833,1.271-2.398,2.89
					c-0.31,0.313-1.977,2.078-1.718,4.189c0.116,0.944,0.672,2.257,2.65,2.997c0.356,0.133,0.763,0.146,1.16,0.04
					c1.027-0.239,1.631,0.264,1.768,1.52c0.528,4.356,1.056,8.71,1.584,13.061c-0.134,0.887-0.917,4.466-5.037,5.545
					c-0.724,0.185-1.53,0.285-2.395,0.288c-0.151,0.002-0.303,0.02-0.453,0.052c-0.715,0.174-3.08,0.807-3.512,2.866
					c-0.448,2.156,1.715,3.495,2.835,4.052c1.036,0.979,3.255,2.147,6.252,1.309c2.195-0.612,4.459-2.183,6.73-4.642
					c0.071-0.077,0.135-0.157,0.199-0.242c0.121-0.16,0.643-0.719,1.175-0.889c0.134-0.044,0.542-0.173,1.184,0.244
					c0.524,0.397,5.013,3.362,10.826,1.591c3.354-1.009,6.419-3.301,9.113-6.809c0.095-0.123,0.175-0.254,0.243-0.392
					c0.334-0.692,3.265-6.654,3.745-9.599c0.028-0.174,0.034-0.35,0.019-0.525c-0.122-1.312,0.192-2.94,0.61-3.154
					c0.449-0.232,0.807-0.614,0.999-1.077c0.532-1.265,1.061-2.524,1.591-3.775c0.282-0.663,0.188-1.428-0.244-2.001
					c-0.382-0.506-0.976-0.793-1.602-0.778c-0.226-0.074-0.818-0.483-1.477-1.671c-0.188-1.328-0.997-5.364-4.195-7.396
					c1.171-2.478,2.916-6.9,2.917-11.649c0.01-0.078,0.06-0.462,0.25-0.525c1.025-0.34,1.664-1.384,1.466-2.418
					c-0.137-0.7-0.628-1.233-1.257-1.436c-0.177-0.122-0.673-0.517-1.657-1.549c-0.305-2.048-1.75-8.12-8.448-10.757
					c-0.925-0.63-4.444-2.599-9.771-0.86c-2.557,0.827-5.16,2.372-7.734,4.54c-0.219,0.184-0.273,0.198-0.398,0.406
					c-0.056,0.047-0.167,0.121-0.335,0.173c-0.32,0.096-1.236,0.209-2.811-0.918c-0.295-0.211-0.662-0.321-1.052-0.312
					C120.287,21.483,117.737,21.553,115.05,22.166L115.05,22.166z M128.131,31.748c1.635-1.536,3.195-2.557,4.646-3.025
					c1.975-0.641,3.08-0.009,3.125,0.018c0.208,0.139,0.417,0.206,0.679,0.237c1.816,0.219,2.662,1.534,2.788,1.742
					c0.12,0.422,0.032,1.916-0.195,3.118c-0.012,0.077-0.024,0.153-0.028,0.229c-0.014,0.169-0.046,0.27-0.066,0.319
					c-0.42,0.417-0.691,0.964-0.744,1.518c-0.063,0.641,0.174,1.218,0.637,1.561c2.569,1.901,0.846,5.514,0.244,6.599
					c-1.097,1.006-2.248,1.709-3.428,2.084c-2.642,0.846-4.97-0.087-5.979-0.622C129.248,40.933,128.689,36.341,128.131,31.748
					L128.131,31.748z M131.374,58.376c1.633-1.542,3.191-2.562,4.642-3.025c1.977-0.629,3.08,0.019,3.125,0.046
					c0.208,0.14,0.416,0.21,0.678,0.246c1.816,0.243,2.662,1.575,2.786,1.786c0.123,0.424,0.031,1.916-0.195,3.117
					c-0.013,0.076-0.023,0.152-0.027,0.228c-0.014,0.168-0.047,0.269-0.067,0.316c-0.42,0.409-0.691,0.953-0.744,1.503
					c-0.062,0.642,0.174,1.223,0.637,1.573c2.569,1.953,0.847,5.53,0.244,6.604c-1.095,0.984-2.248,1.668-3.426,2.032
					c-2.644,0.815-4.973-0.121-5.979-0.653C132.492,67.557,131.933,62.967,131.374,58.376L131.374,58.376z"/>
			</g>
		</g>
		<path fill="#151928" d="M84.966,16.252c0.848,2.26-0.297,4.782-2.558,5.629l-6.953,2.609c-2.261,0.848-4.783-0.298-5.631-2.559
			l0,0c-0.848-2.262,0.297-4.783,2.559-5.629l6.954-2.608C81.597,12.844,84.117,13.989,84.966,16.252L84.966,16.252z"/>
		<g>
			<g>
				<path fill="#595A5A" d="M43.961,131.047c3.013-5.522,8.765-14.051,19.379-24.436c17.553-17.171,52.351-43.047,118.435-68.803
					c8.914-3.475,17.744-5.236,26.241-5.236c26.666,0,43.812,16.671,48.46,32.161c3.427,11.424,0.082,21.935-8.949,28.29
					c-5.129-1.854-33.126-11.314-70.329-11.314C141.962,81.708,90.858,90.435,43.961,131.047z"/>
				<path fill="#1C223F" d="M208.015,34.251c11.533,0,22.25,3.342,30.998,9.664c7.791,5.63,13.42,13.194,15.85,21.3
					c3.167,10.549,0.396,19.902-7.599,25.92c-6.941-2.467-33.846-11.109-70.068-11.109c-33.443,0-81.07,7.799-125.988,42.879
					c3.259-4.415,7.679-9.622,13.641-15.419c17.458-16.98,52.021-42.579,117.536-68.113
					C191.105,35.974,199.728,34.251,208.015,34.251 M208.015,30.89c-8.263,0-17.283,1.623-26.853,5.353
					C52.13,86.532,39.273,137.516,39.273,137.516c46.387-43.191,97.774-54.128,137.924-54.128c41.194,0,70.559,11.512,70.559,11.512
					C274.911,76.993,252.107,30.89,208.015,30.89L208.015,30.89z"/>
			</g>
			
				<path fill="none" stroke="#151928" stroke-width="0.5" stroke-linecap="round" stroke-linejoin="round" stroke-miterlimit="10" d="
				M140.427,82.222c0,0,76.106-40.919,100.032,7.42"/>
			
				<path fill="none" stroke="#151928" stroke-width="0.5" stroke-linecap="round" stroke-linejoin="round" stroke-miterlimit="10" d="
				M107.079,92.281c0,0,124.956-78.868,137.085-2.201"/>
			
				<path fill="none" stroke="#151928" stroke-width="0.5" stroke-linecap="round" stroke-linejoin="round" stroke-miterlimit="10" d="
				M160.895,79.953c0,0,54.062-11.8,68.446,6.319"/>
			
				<path fill="none" stroke="#151928" stroke-width="0.5" stroke-linecap="round" stroke-linejoin="round" stroke-miterlimit="10" d="
				M86.071,101.01c0,0,164.496-111.766,161.968-9.348"/>
			
				<path fill="none" stroke="#151928" stroke-width="0.5" stroke-linecap="round" stroke-linejoin="round" stroke-miterlimit="10" d="
				M55.371,118.937c0,0,192.698-154.108,197.891-32.664"/>
		</g>
	</g>
</g>
</svg>
