<?xml version="1.0" encoding="utf-8"?>
<!-- Generator: Adobe Illustrator 15.1.0, SVG Export Plug-In . SVG Version: 6.00 Build 0)  -->
<!DOCTYPE svg PUBLIC "-//W3C//DTD SVG 1.1//EN" "http://www.w3.org/Graphics/SVG/1.1/DTD/svg11.dtd">
<svg version="1.1" id="Layer_1" xmlns="http://www.w3.org/2000/svg" xmlns:xlink="http://www.w3.org/1999/xlink" x="0px" y="0px"
	 width="148.671px" height="150.051px" viewBox="0 0 148.671 150.051" enable-background="new 0 0 148.671 150.051"
	 xml:space="preserve">
<path fill="#35322F" d="M72.807,13.795c-12.236-2.08-28.698-0.278-47.716,13.553c0,0-9.767,2.773-5.259,37.828v8.757h-4.715
	l-2.799-8.757c0,0-5.89-2.229-7.959,3.093c0.497,29.995,25.047,54.243,55.158,54.243c30.42,0,55.169-24.748,55.169-55.169
	C114.685,41.503,96.828,19.759,72.807,13.795z M26.524,43.843c-0.012,0.941-0.779,1.696-1.718,1.696c-0.008,0-0.015,0-0.022,0
	c-0.949-0.012-1.708-0.792-1.696-1.74c0.004-0.317,0.264-7.771,14.659-7.771c0.949,0,1.718,0.769,1.718,1.718
	c0,0.95-0.769,1.719-1.718,1.719C27.06,39.464,26.524,43.799,26.524,43.843z M37.746,61.751c-3.066,0-5.552-2.485-5.552-5.551
	c0-3.067,2.486-5.553,5.552-5.553s5.552,2.486,5.552,5.553C43.298,59.267,40.812,61.751,37.746,61.751z M64.227,111.963
	c-0.129,0.852-0.862,1.46-1.698,1.46c-0.086,0-0.173-0.005-0.262-0.019l-14.068-2.15c-0.938-0.145-1.584-1.021-1.44-1.961
	c0.144-0.938,1.022-1.583,1.96-1.439l14.068,2.149C63.726,110.146,64.371,111.023,64.227,111.963z M78.541,84.447
	c-0.097,0.418-2.506,10.164-16.521,10.164c-0.115,0-0.23,0-0.347,0c-1.424-0.018-2.565-1.185-2.548-2.607
	c0.016-1.414,1.167-2.548,2.577-2.548c0.01,0,0.02,0,0.03,0c8.482,0.082,10.988-4.159,11.609-5.654l-9.454-34.709
	c-0.374-1.373,0.436-2.79,1.81-3.165c1.371-0.373,2.791,0.437,3.165,1.81l9.657,35.454C78.626,83.602,78.634,84.033,78.541,84.447z
	 M92.362,60.032c-3.065,0-5.552-2.486-5.552-5.552c0-3.065,2.486-5.552,5.552-5.552c3.066,0,5.552,2.486,5.552,5.552
	S95.428,60.032,92.362,60.032z M102.32,42.607c-0.389,0-0.779-0.131-1.102-0.401c-8.194-6.862-11.385-3.881-11.414-3.849
	c-0.619,0.72-1.705,0.802-2.424,0.184c-0.719-0.619-0.801-1.704-0.184-2.423c0.207-0.241,5.193-5.787,16.227,3.455
	c0.729,0.609,0.824,1.693,0.215,2.42C103.298,42.397,102.812,42.607,102.32,42.607z"/>
<circle fill="#A8A8A8" cx="61.5" cy="66.025" r="58.5"/>
<g>
	<path fill="#848484" d="M97.722,87.289c0,2.708-2.214,4.903-4.945,4.903H29.894c-2.731,0-4.945-2.195-4.945-4.903V42.426
		c0-2.707,2.214-4.901,4.945-4.901h62.88c2.73,0,4.944,2.194,4.944,4.901v44.863H97.722z"/>
	<circle fill="#F1F1F1" cx="40.511" cy="53.678" r="6.687"/>
	<polygon fill="#F1F1F1" points="33.825,82.962 88.018,82.962 70.39,55.63 53.256,77.488 44.001,68.054 	"/>
</g>
</svg>
