<?xml version="1.0" encoding="utf-8"?>
<!-- Generator: Adobe Illustrator 15.1.0, SVG Export Plug-In . SVG Version: 6.00 Build 0)  -->
<!DOCTYPE svg PUBLIC "-//W3C//DTD SVG 1.1//EN" "http://www.w3.org/Graphics/SVG/1.1/DTD/svg11.dtd">
<svg version="1.1" id="Layer_1" xmlns="http://www.w3.org/2000/svg" xmlns:xlink="http://www.w3.org/1999/xlink" x="0px" y="0px"
	 width="297.641px" height="352.012px" viewBox="0 0 297.641 352.012" enable-background="new 0 0 297.641 352.012"
	 xml:space="preserve">
<g>
	<path fill="#231F20" d="M149.307,61.541c-76.891,0-139.228,62.335-139.228,139.227c0,76.895,62.335,139.226,139.228,139.226
		c76.894,0,139.227-62.332,139.227-139.226C288.533,123.876,226.2,61.541,149.307,61.541L149.307,61.541z"/>
	<path fill="#FFFFFF" d="M234.469,89.211c-29.369-13.908-93.237-32.757-163.53,18.367c0,0-22.76,6.461-12.254,88.143v20.403H47.699
		l-6.524-20.403c0,0-29.342-11.109-17.296,37.912L21.2,250.811c20.102,52.166,70.7,89.182,129.951,89.182
		c76.894,0,139.229-62.332,139.229-139.227C290.381,155.118,268.41,114.601,234.469,89.211z M73.281,145.997
		c-0.021,1.647-1.363,2.967-3.007,2.967c-0.013,0-0.022,0-0.039,0c-1.66-0.021-2.987-1.383-2.968-3.042
		c0.011-0.699,0.591-17.121,33.158-17.121c1.662,0,3.006,1.346,3.006,3.005c0,1.661-1.345,3.007-3.006,3.007
		C74.159,134.812,73.282,145.885,73.281,145.997z M100.427,187.74c-7.143,0-12.936-5.79-12.936-12.938
		c0-7.143,5.792-12.937,12.936-12.937c7.145,0,12.936,5.793,12.936,12.937C113.363,181.95,107.572,187.74,100.427,187.74z
		 M195.976,240.74c-0.229,0.988-5.933,24.072-38.988,24.072c-0.271,0-0.543,0-0.82-0.002c-3.601-0.043-6.479-2.99-6.438-6.588
		c0.042-3.572,2.95-6.439,6.512-6.439c0.027,0,0.053,0,0.077,0c0.219,0.007,0.439,0.007,0.653,0.007
		c18.669,0,24.373-9.251,25.855-12.699l-21.983-80.713c-0.945-3.469,1.102-7.049,4.573-7.995c3.465-0.946,7.049,1.103,7.995,4.573
		l22.502,82.612C196.198,238.602,196.218,239.691,195.976,240.74z M227.688,183.73c-7.142,0-12.934-5.789-12.934-12.934
		c0-7.145,5.792-12.936,12.934-12.936c7.146,0,12.938,5.792,12.938,12.936C240.626,177.941,234.833,183.73,227.688,183.73z
		 M253.198,141.059c-0.594,0.71-1.446,1.074-2.308,1.074c-0.68,0-1.364-0.228-1.926-0.7c-20.069-16.808-27.963-8.886-28.038-8.804
		c-1.081,1.257-2.957,1.377-4.217,0.295c-1.258-1.082-1.382-3.005-0.3-4.264c0.456-0.53,11.445-12.744,36.412,8.166
		C254.097,137.889,254.266,139.787,253.198,141.059z"/>
	<g>
		<path fill="#231F20" d="M149.307,345.333c-79.714,0-144.565-64.851-144.565-144.567C4.741,121.053,69.594,56.2,149.307,56.2
			c79.715,0,144.568,64.853,144.568,144.565C293.874,280.482,229.023,345.333,149.307,345.333z M149.307,66.88
			c-73.826,0-133.889,60.062-133.889,133.886c0,73.826,60.063,133.889,133.889,133.889c73.827,0,133.89-60.062,133.89-133.889
			C283.198,126.942,223.134,66.88,149.307,66.88z"/>
	</g>
	<g>
		<path fill="#151928" d="M9.579,176.267c0,0,83.805-132.27,238.118-78.159c0,0-34.046-93.228-105.918-89.88
			C74.14,11.331-3.485,32.78,9.579,176.267z"/>
		<g>
			<g>
				<path fill="#991D20" d="M140.887,85.133c-5.54,1.69-9.787-1.353-9.965-1.502c-0.631-0.417-1.274-0.527-1.938-0.312
					c-1.024,0.327-1.806,1.342-1.812,1.353c-0.028,0.042-0.062,0.081-0.098,0.12c-2.095,2.264-4.155,3.697-6.125,4.246
					c-3.064,0.85-4.933-0.686-5.438-1.171c-1.337-0.659-2.764-1.644-2.475-3.028c0.29-1.391,2.078-1.867,2.62-1.999
					c0.072-0.017,0.148-0.023,0.222-0.024c0.932-0.003,1.808-0.112,2.602-0.316c5.017-1.329,5.792-5.938,5.886-6.651
					c-0.529-4.342-1.059-8.69-1.583-13.037c-0.105-0.969-0.436-1.629-0.986-1.979c-0.799-0.5-1.872-0.244-1.883-0.242
					c-0.197,0.052-0.397,0.047-0.575-0.018c-1.261-0.465-1.964-1.236-2.087-2.256c-0.203-1.627,1.226-3.104,1.388-3.273
					c2.132-2.221,2.628-3.211,2.74-3.501c-0.02-0.055-0.03-0.117-0.04-0.175c-0.621-5.124-1.241-10.25-1.86-15.382
					c-0.061-0.511-0.203-1.663-2.85-1.019c-1.52,0.364-2.986,1.092-2.999,1.098c-0.086,0.041-0.178,0.074-0.27,0.092
					c-0.009,0.001-0.02,0.004-0.029,0.004c-1.958,0.328-3.292-0.109-3.96-1.195c-1.267-2.062,0.675-5.339,1.074-5.991
					c0.97-1.531,2.825-2.532,5.521-3.152c2.536-0.58,4.94-0.644,5.039-0.646c0.194-0.002,0.376,0.05,0.522,0.156
					c1.353,0.975,2.585,1.323,3.569,1.022c0.616-0.188,0.938-0.577,0.941-0.581c0.061-0.085,0.135-0.166,0.217-0.233
					c2.421-2.043,4.854-3.494,7.234-4.264c5.109-1.665,8.361,0.353,8.998,0.811c6.721,2.573,7.821,8.753,7.993,10.254
					c1.402,1.484,1.992,1.874,2.141,1.953c0.354,0.07,0.644,0.35,0.72,0.73c0.099,0.511-0.218,1.034-0.729,1.204
					c-0.925,0.313-0.986,1.396-0.99,1.518c0.012,5.13-2.142,9.916-3.197,11.996c3.651,1.672,4.374,6.189,4.497,7.209
					c1.228,2.291,2.348,2.296,2.357,2.296c0.354-0.055,0.68,0.087,0.893,0.37c0.212,0.283,0.23,0.665,0.093,0.996
					c-0.525,1.247-1.051,2.504-1.577,3.766c-0.098,0.23-0.271,0.421-0.496,0.538c-1.141,0.596-1.283,3.073-1.176,4.169
					c0.01,0.087,0.006,0.174-0.009,0.261c-0.458,2.818-3.484,8.975-3.612,9.256c-0.036,0.069-0.076,0.132-0.123,0.195
					C146.771,82.075,143.95,84.209,140.887,85.133L140.887,85.133z M132.749,75.123c0.854,0.51,3.666,1.912,6.991,0.888
					c1.397-0.43,2.752-1.245,4.026-2.417c0.495-0.847,2.978-5.45-0.307-7.967c-0.231-0.174-0.35-0.463-0.317-0.781
					c0.034-0.315,0.209-0.626,0.475-0.832c-0.001,0-0.001,0-0.001,0c-0.01,0.003,0.277-0.297,0.333-0.985
					c0.003-0.037,0.01-0.076,0.018-0.114c0.252-1.353,0.374-3.139,0.13-3.664c-0.032-0.06-0.983-1.907-3.381-2.235
					c-0.132-0.017-0.252-0.062-0.354-0.134c-0.049-0.028-1.409-0.89-3.839-0.115c-1.755,0.561-3.619,1.823-5.548,3.739
					C131.563,65.379,132.156,70.25,132.749,75.123z M129.535,48.724c0.852,0.516,3.667,1.924,6.992,0.86
					c1.399-0.446,2.751-1.283,4.023-2.479c0.499-0.86,2.977-5.514-0.304-7.961c-0.231-0.17-0.35-0.458-0.317-0.777
					c0.032-0.318,0.207-0.631,0.474-0.844c0,0-0.001,0.001-0.002,0.001c-0.008,0.002,0.279-0.3,0.334-0.993
					c0.004-0.038,0.009-0.074,0.016-0.114c0.252-1.359,0.373-3.15,0.127-3.668c-0.028-0.056-0.982-1.88-3.379-2.173
					c-0.129-0.017-0.25-0.061-0.353-0.128c-0.05-0.031-1.411-0.869-3.842-0.08c-1.753,0.566-3.615,1.829-5.545,3.733
					C128.348,38.975,128.942,43.85,129.535,48.724z"/>
				<path fill="#FFFFFF" d="M116.084,26.802c2.433-0.561,4.778-0.613,4.778-0.612c1.91,1.383,3.364,1.436,4.354,1.136
					c1.055-0.323,1.586-1.056,1.586-1.056c2.535-2.147,4.825-3.388,6.806-4.026c5.192-1.693,8.296,0.76,8.296,0.762
					c7.278,2.713,7.607,9.894,7.607,9.843c2.345,2.501,2.843,2.434,2.843,2.426c-1.71,0.589-1.733,2.542-1.733,2.535
					c0.014,6.446-3.604,12.522-3.604,12.543c4.494,1.162,4.924,6.977,4.924,6.949c1.657,3.196,3.399,2.935,3.399,2.938
					c-0.526,1.255-1.053,2.519-1.577,3.788c-2.15,1.146-1.748,5.233-1.748,5.228c-0.438,2.698-3.516,8.974-3.516,8.987
					c-2.622,3.461-5.304,5.182-7.732,5.914c-5.139,1.57-9.162-1.383-9.162-1.395c-0.998-0.662-1.941-0.677-2.747-0.419
					c-1.46,0.467-2.456,1.824-2.456,1.824c-2.189,2.363-4.059,3.469-5.58,3.889c-3.036,0.838-4.671-1.053-4.671-1.048
					c-4.612-2.264-0.384-3.186-0.384-3.19c1.052-0.002,1.989-0.129,2.825-0.346c6.263-1.684,6.776-7.854,6.776-7.818
					c-0.532-4.378-1.064-8.758-1.597-13.141c-0.422-3.897-3.98-2.895-3.979-2.908c-3.197-1.184-0.5-3.905-0.5-3.905
					c3.875-4.079,3.039-4.637,3.039-4.625c-0.621-5.119-1.242-10.242-1.861-15.369c-0.259-2.14-2.17-2.151-3.963-1.731
					c-1.688,0.403-3.271,1.187-3.271,1.186c-6.007,0.875-1.952-5.717-1.952-5.696C112.227,27.989,114.182,27.247,116.084,26.802
					 M136.644,50.556c1.477-0.47,3.057-1.363,4.646-2.895c0-0.001,3.886-6.19-0.365-9.381c0,0,0.705-0.562,0.807-1.851
					c0,0,0.587-3.138,0.067-4.244c0,0.002-1.112-2.268-3.995-2.625c0,0-1.67-1.124-4.616-0.164
					c-1.742,0.563-3.934,1.854-6.489,4.479c0.632,5.184,1.261,10.368,1.891,15.548C128.586,49.433,132.13,52.007,136.644,50.556
					 M139.858,76.985c1.476-0.449,3.054-1.318,4.646-2.814c0-0.002,3.887-6.098-0.364-9.389c0,0,0.704-0.542,0.807-1.834
					c0,0,0.586-3.123,0.066-4.242c0,0.005-1.112-2.3-3.998-2.699c0,0.001-1.666-1.154-4.614-0.213
					c-1.742,0.555-3.933,1.845-6.49,4.497c0.633,5.18,1.261,10.358,1.891,15.536C131.8,75.836,135.345,78.379,139.858,76.985
					 M115.848,24.838L115.848,24.838c-3.003,0.688-5.104,1.831-6.239,3.607c-0.651,1.044-2.627,4.527-1.095,7.047
					c0.607,0.988,1.953,2.144,4.904,1.654c0.022-0.004,0.04-0.008,0.06-0.012c0.187-0.037,0.367-0.099,0.54-0.188
					c0.01-0.004,1.36-0.676,2.732-1.005c1.649-0.4,1.702,0.011,1.735,0.296c0.616,5.103,1.233,10.202,1.851,15.296
					c-0.224,0.376-0.824,1.261-2.377,2.867c-0.308,0.309-1.96,2.058-1.705,4.153c0.117,0.937,0.667,2.236,2.627,2.97
					c0.354,0.133,0.755,0.146,1.153,0.04c1.014-0.236,1.615,0.258,1.75,1.506c0.522,4.317,1.046,8.635,1.569,12.949
					c-0.132,0.878-0.91,4.428-4.993,5.498c-0.72,0.183-1.519,0.282-2.374,0.286c-0.149,0.002-0.303,0.021-0.45,0.053
					c-0.707,0.171-3.054,0.799-3.481,2.84c-0.444,2.139,1.702,3.463,2.812,4.017c1.027,0.972,3.228,2.128,6.198,1.298
					c2.178-0.606,4.42-2.164,6.67-4.602c0.071-0.076,0.137-0.156,0.196-0.24c0.122-0.156,0.638-0.714,1.166-0.881
					c0.134-0.043,0.54-0.17,1.174,0.241c0.521,0.396,4.971,3.334,10.731,1.579c3.326-1,6.365-3.275,9.041-6.75
					c0.091-0.123,0.172-0.253,0.236-0.39c0.332-0.687,3.239-6.597,3.715-9.518c0.025-0.17,0.03-0.348,0.019-0.52
					c-0.119-1.298,0.19-2.916,0.604-3.128c0.445-0.228,0.8-0.606,0.991-1.066c0.524-1.252,1.051-2.501,1.577-3.743
					c0.277-0.658,0.188-1.415-0.244-1.985c-0.379-0.5-0.966-0.785-1.584-0.771c-0.225-0.073-0.812-0.479-1.467-1.656
					c-0.186-1.319-0.985-5.318-4.16-7.333c1.162-2.457,2.892-6.839,2.896-11.549c0.008-0.078,0.057-0.458,0.246-0.521
					c1.016-0.338,1.649-1.371,1.454-2.396c-0.138-0.696-0.623-1.223-1.248-1.424c-0.172-0.122-0.667-0.512-1.643-1.536
					c-0.302-2.03-1.732-8.051-8.373-10.665c-0.918-0.624-4.407-2.577-9.687-0.852c-2.536,0.821-5.115,2.352-7.669,4.5
					c-0.215,0.183-0.271,0.197-0.396,0.403c-0.054,0.045-0.166,0.121-0.331,0.171c-0.316,0.097-1.226,0.207-2.787-0.91
					c-0.296-0.209-0.657-0.319-1.048-0.308C121.04,24.16,118.51,24.231,115.848,24.838L115.848,24.838z M128.818,34.337
					c1.623-1.525,3.166-2.535,4.604-3c1.957-0.636,3.054-0.008,3.098,0.018c0.206,0.137,0.411,0.206,0.671,0.235
					c1.802,0.218,2.64,1.521,2.765,1.726c0.119,0.418,0.028,1.899-0.192,3.093c-0.016,0.075-0.024,0.152-0.031,0.226
					c-0.012,0.167-0.045,0.268-0.063,0.316c-0.416,0.413-0.687,0.955-0.738,1.505c-0.062,0.636,0.173,1.209,0.632,1.548
					c2.546,1.885,0.84,5.465,0.241,6.543c-1.086,0.996-2.228,1.693-3.396,2.066c-2.619,0.84-4.926-0.086-5.929-0.616
					C129.927,43.444,129.372,38.89,128.818,34.337L128.818,34.337z M132.032,60.738c1.622-1.53,3.167-2.541,4.604-2.997
					c1.959-0.626,3.051,0.018,3.097,0.043c0.206,0.14,0.415,0.21,0.674,0.245c1.799,0.242,2.638,1.563,2.763,1.769
					c0.121,0.422,0.031,1.903-0.192,3.091c-0.014,0.074-0.023,0.149-0.029,0.227c-0.015,0.166-0.046,0.265-0.065,0.311
					c-0.417,0.407-0.687,0.943-0.738,1.492c-0.061,0.635,0.173,1.21,0.634,1.559c2.547,1.937,0.838,5.481,0.242,6.547
					c-1.087,0.978-2.229,1.655-3.396,2.015c-2.622,0.806-4.928-0.119-5.928-0.648C133.14,69.839,132.586,65.29,132.032,60.738
					L132.032,60.738z"/>
			</g>
		</g>
		<path fill="#151928" d="M86.022,18.973c0.839,2.242-0.296,4.741-2.537,5.583l-6.896,2.586c-2.24,0.841-4.738-0.294-5.581-2.537
			l0,0c-0.841-2.243,0.295-4.742,2.537-5.582l6.893-2.586C82.682,15.596,85.181,16.731,86.022,18.973L86.022,18.973z"/>
		<g>
			<g>
				<path fill="#595A5A" d="M45.471,132.656c3.005-5.476,8.699-13.872,19.136-24.081c17.401-17.023,51.896-42.671,117.404-68.202
					c8.833-3.444,17.586-5.189,26.006-5.189c26.422,0,43.411,16.515,48.017,31.862c3.393,11.307,0.084,21.712-8.849,28.008
					c-5.125-1.854-32.871-11.215-69.722-11.215C142.557,83.84,91.939,92.479,45.471,132.656z"/>
				<path fill="#1C223F" d="M208.018,36.879c11.422,0,22.036,3.309,30.698,9.57c7.713,5.573,13.287,13.062,15.694,21.083
					c3.127,10.424,0.396,19.664-7.49,25.618c-6.933-2.46-33.587-11.005-69.455-11.005c-46.218,0-88.932,14.554-124.625,42.281
					c3.208-4.307,7.521-9.359,13.289-14.966c17.308-16.83,51.563-42.199,116.498-67.509
					C191.265,38.586,199.809,36.879,208.018,36.879 M208.018,33.488c-8.191,0-17.134,1.607-26.624,5.304
					C53.467,88.653,40.719,139.2,40.719,139.2c45.991-42.822,96.939-53.665,136.746-53.665c40.841,0,69.952,11.413,69.952,11.413
					C274.343,79.194,251.733,33.488,208.018,33.488L208.018,33.488z"/>
			</g>
			
				<path fill="none" stroke="#151928" stroke-width="0.5" stroke-linecap="round" stroke-linejoin="round" stroke-miterlimit="10" d="
				M141.005,84.379c0,0,75.454-40.567,99.179,7.356"/>
			
				<path fill="none" stroke="#151928" stroke-width="0.5" stroke-linecap="round" stroke-linejoin="round" stroke-miterlimit="10" d="
				M107.946,94.352c0,0,123.889-78.193,135.91-2.183"/>
			
				<path fill="none" stroke="#151928" stroke-width="0.5" stroke-linecap="round" stroke-linejoin="round" stroke-miterlimit="10" d="
				M161.303,82.131c0,0,53.599-11.7,67.859,6.264"/>
			
				<path fill="none" stroke="#151928" stroke-width="0.5" stroke-linecap="round" stroke-linejoin="round" stroke-miterlimit="10" d="
				M87.119,103.008c0,0,163.088-110.81,160.58-9.269"/>
			
				<path fill="none" stroke="#151928" stroke-width="0.5" stroke-linecap="round" stroke-linejoin="round" stroke-miterlimit="10" d="
				M56.678,120.781c0,0,191.05-152.79,196.196-32.387"/>
		</g>
	</g>
	<path opacity="0.5" fill="#2D2D2D" enable-background="new    " d="M282.671,185.121c-1.867-14.966,5.841,93.677-85.128,64.074
		c-14.828,40.129-50.748,10.527-60.632,15.269c-18.41,8.825-49.292-12.219-78.584-49.259c-4.296,0-10.749,0-10.749,0
		s3.337,13.658,1.066,20.785c-2.787,8.742-12.203,10.242-24.371-3.653c-2.375-2.714-0.462,18.533-5.653,15.974
		c26.062,70.569,104.396,106.652,174.964,80.594C264.16,302.841,288.932,235.334,282.671,185.121z"/>
</g>
<g>
	<path opacity="0.7" fill="#FFFFFF" enable-background="new    " d="M162.064,301.944c-0.198,0-12.993,0.812-21.219-0.583
		c-11.153-1.891-15.85-6.85-15.515-9.038c0.335-2.188,2.382-3.688,4.566-3.354c0,0,2.424,3.287,12.15,5.469
		c10.382,2.328,20.619-0.459,20.619-0.459c2.188,0.334,3.688,2.378,3.354,4.565C165.719,300.527,164.011,301.944,162.064,301.944z"
		/>
</g>
</svg>
