<?xml version="1.0" encoding="utf-8"?>
<!-- Generator: Adobe Illustrator 15.1.0, SVG Export Plug-In . SVG Version: 6.00 Build 0)  -->
<!DOCTYPE svg PUBLIC "-//W3C//DTD SVG 1.1//EN" "http://www.w3.org/Graphics/SVG/1.1/DTD/svg11.dtd">
<svg version="1.1" id="Layer_1" xmlns="http://www.w3.org/2000/svg" xmlns:xlink="http://www.w3.org/1999/xlink" x="0px" y="0px"
	 width="234.826px" height="269.02px" viewBox="0 0 234.826 269.02" enable-background="new 0 0 234.826 269.02"
	 xml:space="preserve">
<path fill="#3B7941" d="M194.815,83.557c85.223-92.344-57.1-81.412-57.1-81.412C72.918-8.486,57.789,23.121,53.862,37.564
	c-0.917,3.372,6.438,26.324,6.251,27.069c-3.402-2.784-18.441-12.25-22.628-14.393c-13.562-6.944-26.667,7.501-26.667,7.501
	c-24.032,17.476,2.606,70.17,10.674,107.099c-1.942,0.359-4.803,1.443-6.191,3.793c-8.5,10.664,10.333,23.832,10.333,23.832
	s0.786,3.412,3.296,5.066c0.183,0.604,0.351,1.16,0.499,1.645l-0.13,0.83c15.062,39.086,52.972,66.818,97.363,66.818
	c57.609,0,104.312-46.701,104.312-104.311C230.975,130.958,216.956,102.685,194.815,83.557z M25.28,174.965l2.25,6.5
	C27.53,181.465,18.28,181.215,25.28,174.965z M68.319,121.479c-0.017,1.234-1.021,2.224-2.251,2.224c-0.011,0-0.021,0-0.029-0.001
	c-1.243-0.016-2.238-1.036-2.225-2.279c0.007-0.524,0.443-12.828,24.844-12.828c1.244,0,2.252,1.008,2.252,2.252
	c0,1.244-1.008,2.252-2.252,2.252C68.975,113.098,68.32,121.395,68.319,121.479z M88.656,152.752c-5.354,0-9.691-4.338-9.691-9.692
	c0-5.352,4.339-9.691,9.691-9.691c5.354,0,9.691,4.34,9.691,9.691C98.348,148.416,94.009,152.752,88.656,152.752z M138.578,229.027
	c-0.228,1.486-1.506,2.549-2.965,2.549c-0.149,0-0.304-0.01-0.457-0.033l-24.56-3.754c-1.64-0.252-2.767-1.783-2.516-3.424
	c0.251-1.639,1.785-2.764,3.424-2.514l24.559,3.754C137.703,225.855,138.83,227.385,138.578,229.027z M160.244,192.459
	c-0.172,0.742-4.444,18.037-29.211,18.037c-0.205,0-0.408,0-0.614-0.002c-2.695-0.031-4.855-2.24-4.824-4.936
	c0.03-2.678,2.21-4.824,4.879-4.824c0.02,0,0.038,0,0.058,0c0.164,0.002,0.33,0.002,0.489,0.002c13.987,0,18.265-6.93,19.373-9.514
	l-16.473-60.473c-0.707-2.6,0.825-5.283,3.427-5.99c2.598-0.709,5.282,0.825,5.991,3.426l16.858,61.895
	C160.408,190.859,160.425,191.674,160.244,192.459z M184.004,149.75c-5.354,0-9.693-4.338-9.693-9.69
	c0-5.353,4.341-9.693,9.693-9.693c5.352,0,9.692,4.34,9.692,9.693C193.696,145.412,189.356,149.75,184.004,149.75z M201.389,118.583
	c-0.51,0-1.023-0.172-1.443-0.525c-15.037-12.592-20.951-6.658-21.008-6.596c-0.811,0.943-2.215,1.032-3.158,0.221
	s-1.034-2.251-0.225-3.194c0.342-0.397,8.576-9.55,27.282,6.116c0.951,0.799,1.078,2.219,0.279,3.173
	C202.673,118.311,202.034,118.583,201.389,118.583z"/>
</svg>
