<?xml version="1.0" encoding="utf-8"?>
<!-- Generator: Adobe Illustrator 15.1.0, SVG Export Plug-In . SVG Version: 6.00 Build 0)  -->
<!DOCTYPE svg PUBLIC "-//W3C//DTD SVG 1.1//EN" "http://www.w3.org/Graphics/SVG/1.1/DTD/svg11.dtd">
<svg version="1.1" id="Layer_1" xmlns="http://www.w3.org/2000/svg" xmlns:xlink="http://www.w3.org/1999/xlink" x="0px" y="0px"
	 width="297.641px" height="402.506px" viewBox="0 0 297.641 402.506" enable-background="new 0 0 297.641 402.506"
	 xml:space="preserve">
<path fill="#231F20" d="M148.678,58.835c-77.597,0-140.506,62.908-140.506,140.503c0,77.601,62.908,140.505,140.506,140.505
	c77.6,0,140.505-62.904,140.505-140.505C289.183,121.742,226.278,58.835,148.678,58.835L148.678,58.835z"/>
<path fill="#FFFFFF" d="M234.621,86.758C204.98,72.724,140.526,53.702,69.59,105.294c0,0-22.968,6.521-12.366,88.952v20.59H46.137
	l-6.583-20.59c0,0-29.611-11.212-17.456,38.259l-2.704,17.337c20.287,52.646,71.351,90.001,131.146,90.001
	c77.599,0,140.507-62.904,140.507-140.505C291.047,153.271,268.873,112.383,234.621,86.758z M71.954,144.066
	c-0.021,1.662-1.376,2.995-3.034,2.995c-0.013,0-0.024,0-0.039,0c-1.675-0.021-3.016-1.396-2.996-3.07
	c0.01-0.707,0.597-17.278,33.463-17.278c1.676,0,3.034,1.358,3.034,3.033c0,1.676-1.358,3.035-3.034,3.035
	C72.84,132.779,71.955,143.953,71.954,144.066z M99.349,186.194c-7.21,0-13.055-5.845-13.055-13.057
	c0-7.208,5.845-13.055,13.055-13.055c7.211,0,13.055,5.846,13.055,13.055C112.404,180.349,106.56,186.194,99.349,186.194z
	 M195.775,239.678c-0.229,0.999-5.985,24.294-39.347,24.294c-0.274,0-0.548,0-0.827-0.002c-3.632-0.042-6.54-3.018-6.498-6.648
	c0.042-3.604,2.978-6.498,6.57-6.498c0.027,0,0.053,0,0.079,0c0.219,0.006,0.442,0.006,0.659,0.006
	c18.84,0,24.598-9.336,26.094-12.816l-22.188-81.454c-0.953-3.502,1.111-7.115,4.616-8.07c3.496-0.954,7.113,1.113,8.067,4.615
	l22.709,83.37C195.997,237.521,196.019,238.619,195.775,239.678z M227.778,182.148c-7.208,0-13.054-5.845-13.054-13.054
	c0-7.21,5.846-13.055,13.054-13.055c7.212,0,13.059,5.845,13.059,13.055C240.835,176.303,234.99,182.148,227.778,182.148z
	 M253.523,139.083c-0.6,0.716-1.461,1.085-2.328,1.085c-0.687,0-1.377-0.23-1.943-0.708c-20.254-16.962-28.219-8.968-28.296-8.885
	c-1.093,1.27-2.983,1.39-4.255,0.299c-1.271-1.092-1.395-3.034-0.303-4.304c0.461-0.535,11.552-12.862,36.746,8.239
	C254.429,135.884,254.6,137.799,253.523,139.083z"/>
<g>
	<path fill="#231F20" d="M148.678,345.232c-80.446,0-145.894-65.445-145.894-145.895c0-80.444,65.447-145.892,145.894-145.892
		c80.447,0,145.895,65.448,145.895,145.892C294.573,279.786,229.125,345.232,148.678,345.232z M148.678,64.223
		c-74.503,0-135.118,60.613-135.118,135.115c0,74.505,60.614,135.118,135.118,135.118c74.505,0,135.118-60.613,135.118-135.118
		C283.797,124.836,223.183,64.223,148.678,64.223z"/>
</g>
<path fill="#2D2D2D" d="M288.634,182.935c-1.926-15.437,6.024,96.628-87.81,66.093c-15.299,41.395-52.35,10.859-62.542,15.748
	c-18.99,9.104-50.845-12.601-81.061-50.812c-4.429,0-11.086,0-11.086,0s3.442,14.089,1.101,21.44
	c-2.875,9.02-12.588,10.562-25.139-3.771c-2.449-2.8-0.476,19.119-5.832,16.475c3.36,9.102-10.766,34.111-5.839,42.043
	c8.191,13.195,16.206,25.915,27.835,35.47c11.989,9.851,18.785,27.801,33.227,33.225c8.992,3.379,40.725,17.821,50.285,19.309
	c11.426,1.775,15.938,19.103,27.71,17.961c11.772-1.143,53.617-25.795,65.232-30.084c7.816-2.885,13.905-27.631,20.651-31.43
	c12.84-7.228,11.493-26.63,20.653-36.368c11.13-11.83,15.129-27.897,21.252-41.742c4.431-10.021,7.611-20.326,9.628-30.562
	C289.828,211.099,290.314,196.414,288.634,182.935z"/>
<g>
	<path fill="#151928" d="M7.667,174.615c0,0,84.573-133.485,240.305-78.877c0,0-34.356-94.082-106.891-90.704
		C72.821,8.164-5.517,29.81,7.667,174.615z"/>
	<g>
		<g>
			<path fill="#991D20" d="M140.18,82.643c-5.592,1.706-9.878-1.365-10.058-1.516c-0.637-0.421-1.286-0.532-1.955-0.316
				c-1.035,0.33-1.821,1.355-1.828,1.366c-0.03,0.042-0.063,0.083-0.101,0.121c-2.112,2.285-4.192,3.732-6.182,4.285
				c-3.092,0.858-4.977-0.693-5.486-1.182c-1.349-0.665-2.789-1.659-2.497-3.056c0.292-1.404,2.097-1.885,2.644-2.016
				c0.075-0.017,0.15-0.024,0.225-0.026c0.94-0.003,1.824-0.112,2.625-0.318c5.062-1.341,5.846-5.992,5.94-6.712
				c-0.534-4.383-1.066-8.77-1.598-13.157c-0.105-0.979-0.439-1.645-0.995-1.997c-0.808-0.506-1.89-0.246-1.9-0.244
				c-0.2,0.052-0.401,0.047-0.581-0.018c-1.271-0.469-1.981-1.247-2.105-2.277c-0.204-1.642,1.236-3.132,1.401-3.302
				c2.151-2.241,2.651-3.241,2.766-3.534c-0.02-0.056-0.031-0.117-0.04-0.177c-0.626-5.171-1.252-10.345-1.877-15.524
				c-0.062-0.516-0.205-1.677-2.876-1.027c-1.533,0.368-3.015,1.102-3.027,1.107c-0.087,0.042-0.18,0.075-0.272,0.094
				c-0.009,0.001-0.02,0.004-0.029,0.004c-1.977,0.331-3.322-0.11-3.997-1.206c-1.277-2.081,0.681-5.389,1.085-6.047
				c0.978-1.545,2.851-2.554,5.569-3.181c2.56-0.584,4.985-0.649,5.086-0.65c0.195-0.002,0.38,0.051,0.527,0.158
				c1.365,0.984,2.609,1.333,3.603,1.032c0.622-0.189,0.946-0.583,0.949-0.586c0.062-0.086,0.137-0.166,0.22-0.235
				c2.441-2.062,4.899-3.526,7.302-4.303c5.156-1.68,8.438,0.356,9.082,0.817c6.781,2.598,7.893,8.834,8.065,10.35
				c1.415,1.497,2.011,1.89,2.158,1.969c0.358,0.071,0.65,0.352,0.727,0.736c0.1,0.516-0.22,1.043-0.733,1.215
				c-0.936,0.316-0.996,1.409-1,1.532c0.011,5.177-2.162,10.007-3.227,12.105c3.685,1.689,4.414,6.246,4.537,7.276
				c1.237,2.313,2.368,2.317,2.379,2.317c0.357-0.055,0.686,0.089,0.899,0.375s0.234,0.67,0.094,1.003
				c-0.529,1.26-1.06,2.528-1.591,3.801c-0.098,0.233-0.275,0.425-0.501,0.542c-1.15,0.602-1.296,3.102-1.187,4.208
				c0.009,0.088,0.005,0.176-0.009,0.264c-0.464,2.844-3.519,9.057-3.646,9.34c-0.036,0.07-0.077,0.135-0.125,0.197
				C146.118,79.557,143.272,81.712,140.18,82.643L140.18,82.643z M131.968,72.541c0.861,0.516,3.699,1.931,7.055,0.897
				c1.412-0.434,2.777-1.255,4.062-2.44c0.501-0.854,3.005-5.5-0.311-8.04c-0.231-0.176-0.352-0.468-0.318-0.788
				c0.033-0.32,0.209-0.633,0.478-0.841c-0.001,0-0.001,0-0.001,0c-0.009,0.003,0.281-0.298,0.336-0.995
				c0.003-0.037,0.009-0.076,0.018-0.114c0.254-1.367,0.376-3.169,0.131-3.698c-0.032-0.059-0.992-1.924-3.412-2.255
				c-0.133-0.017-0.253-0.062-0.357-0.135c-0.049-0.03-1.423-0.899-3.873-0.117c-1.771,0.566-3.652,1.84-5.601,3.773
				C130.771,62.708,131.368,67.624,131.968,72.541z M128.724,45.9c0.86,0.521,3.701,1.943,7.058,0.868
				c1.41-0.45,2.774-1.294,4.059-2.503c0.504-0.867,3.005-5.564-0.306-8.034c-0.233-0.172-0.353-0.462-0.32-0.783
				c0.032-0.321,0.209-0.637,0.479-0.852c0,0-0.001,0.001-0.003,0.001c-0.008,0.002,0.282-0.303,0.337-1.002
				c0.004-0.038,0.009-0.076,0.016-0.115c0.255-1.372,0.377-3.178,0.13-3.702c-0.03-0.057-0.991-1.898-3.411-2.193
				c-0.131-0.016-0.253-0.06-0.354-0.129c-0.051-0.031-1.425-0.877-3.878-0.082c-1.769,0.572-3.648,1.846-5.598,3.767
				C127.527,36.062,128.125,40.982,128.724,45.9z"/>
			<path fill="#FFFFFF" d="M115.15,23.777c2.457-0.565,4.825-0.618,4.825-0.617c1.927,1.396,3.395,1.45,4.393,1.146
				c1.064-0.326,1.602-1.064,1.602-1.064c2.559-2.167,4.868-3.418,6.869-4.062c5.239-1.709,8.371,0.766,8.371,0.769
				c7.345,2.738,7.678,9.985,7.678,9.934c2.366,2.524,2.869,2.457,2.869,2.449c-1.728,0.596-1.752,2.564-1.752,2.559
				c0.015,6.505-3.636,12.637-3.636,12.657c4.534,1.174,4.97,7.041,4.97,7.014c1.672,3.225,3.431,2.961,3.431,2.963
				c-0.529,1.268-1.062,2.542-1.592,3.822c-2.169,1.158-1.763,5.282-1.763,5.276c-0.443,2.723-3.549,9.055-3.549,9.069
				c-2.646,3.494-5.353,5.229-7.805,5.969c-5.186,1.583-9.243-1.396-9.243-1.409c-1.008-0.667-1.961-0.682-2.772-0.422
				c-1.475,0.471-2.479,1.84-2.479,1.84c-2.211,2.385-4.096,3.502-5.63,3.926c-3.064,0.846-4.715-1.062-4.715-1.057
				c-4.655-2.285-0.388-3.215-0.388-3.219c1.062-0.002,2.008-0.13,2.851-0.349c6.321-1.7,6.839-7.926,6.839-7.891
				c-0.537-4.418-1.073-8.839-1.61-13.261c-0.428-3.933-4.02-2.92-4.018-2.934c-3.226-1.194-0.503-3.94-0.503-3.94
				c3.91-4.117,3.068-4.68,3.068-4.667c-0.627-5.166-1.253-10.336-1.879-15.51c-0.263-2.158-2.19-2.17-4-1.747
				c-1.702,0.407-3.298,1.198-3.298,1.196c-6.063,0.882-1.972-5.769-1.972-5.748C111.258,24.974,113.23,24.226,115.15,23.777
				 M135.898,47.749c1.488-0.475,3.084-1.376,4.689-2.921c0-0.001,3.921-6.247-0.369-9.467c0,0,0.712-0.566,0.814-1.868
				c0,0,0.592-3.166,0.064-4.282c0,0.002-1.121-2.29-4.031-2.649c0,0-1.685-1.134-4.658-0.166c-1.759,0.568-3.97,1.871-6.55,4.52
				c0.639,5.232,1.272,10.464,1.908,15.692C127.766,46.616,131.343,49.213,135.898,47.749 M139.142,74.421
				c1.488-0.455,3.083-1.33,4.688-2.839c0-0.002,3.923-6.154-0.367-9.476c0,0,0.711-0.548,0.813-1.85c0,0,0.591-3.152,0.065-4.281
				c0,0.005-1.122-2.32-4.033-2.724c0,0.001-1.682-1.163-4.657-0.214c-1.759,0.56-3.969,1.861-6.55,4.537
				c0.637,5.227,1.271,10.453,1.908,15.679C131.01,73.261,134.588,75.827,139.142,74.421 M114.911,21.795L114.911,21.795
				c-3.031,0.694-5.15,1.847-6.295,3.641c-0.658,1.054-2.652,4.568-1.105,7.113c0.613,0.997,1.97,2.162,4.95,1.67
				c0.021-0.004,0.04-0.008,0.06-0.012c0.188-0.038,0.37-0.101,0.543-0.189c0.011-0.004,1.373-0.683,2.757-1.015
				c1.666-0.404,1.719,0.011,1.753,0.299c0.621,5.15,1.243,10.295,1.865,15.438c-0.225,0.38-0.831,1.271-2.397,2.893
				c-0.311,0.313-1.979,2.078-1.72,4.191c0.117,0.945,0.673,2.258,2.651,2.998c0.357,0.134,0.762,0.146,1.162,0.039
				c1.025-0.239,1.631,0.262,1.767,1.521c0.528,4.358,1.057,8.714,1.584,13.068c-0.133,0.887-0.918,4.468-5.039,5.549
				c-0.727,0.185-1.531,0.284-2.396,0.289c-0.151,0.002-0.304,0.02-0.455,0.052c-0.714,0.174-3.081,0.807-3.513,2.867
				c-0.449,2.158,1.718,3.496,2.837,4.054c1.037,0.98,3.258,2.147,6.256,1.31c2.197-0.613,4.462-2.184,6.732-4.645
				c0.069-0.077,0.137-0.157,0.197-0.242c0.122-0.158,0.645-0.721,1.177-0.89c0.137-0.043,0.544-0.172,1.186,0.244
				c0.524,0.397,5.016,3.364,10.831,1.593c3.355-1.01,6.423-3.306,9.122-6.812c0.093-0.124,0.175-0.254,0.24-0.392
				c0.335-0.694,3.269-6.657,3.748-9.604c0.025-0.173,0.031-0.351,0.018-0.524c-0.12-1.312,0.192-2.942,0.61-3.156
				c0.45-0.23,0.808-0.613,1.002-1.076c0.529-1.264,1.06-2.524,1.591-3.777c0.28-0.664,0.188-1.428-0.245-2.002
				c-0.383-0.506-0.977-0.793-1.601-0.779c-0.228-0.075-0.819-0.482-1.479-1.671c-0.188-1.332-0.995-5.367-4.198-7.4
				c1.173-2.48,2.917-6.902,2.921-11.655c0.011-0.079,0.06-0.462,0.249-0.524c1.025-0.341,1.665-1.384,1.468-2.419
				c-0.138-0.703-0.628-1.234-1.261-1.437c-0.173-0.124-0.672-0.517-1.654-1.55c-0.307-2.049-1.75-8.125-8.451-10.763
				c-0.927-0.63-4.448-2.601-9.776-0.86c-2.559,0.828-5.162,2.374-7.739,4.542c-0.218,0.185-0.273,0.2-0.399,0.408
				c-0.054,0.046-0.166,0.123-0.333,0.173c-0.321,0.097-1.238,0.208-2.813-0.918c-0.297-0.211-0.664-0.322-1.056-0.312
				C120.152,21.111,117.598,21.182,114.911,21.795L114.911,21.795z M128,31.381c1.636-1.538,3.193-2.558,4.646-3.027
				c1.977-0.642,3.082-0.009,3.127,0.018c0.207,0.138,0.415,0.206,0.678,0.237c1.816,0.219,2.664,1.534,2.79,1.741
				c0.12,0.422,0.028,1.916-0.194,3.121c-0.015,0.077-0.024,0.154-0.031,0.229c-0.012,0.169-0.046,0.271-0.063,0.32
				c-0.42,0.417-0.691,0.963-0.745,1.518c-0.062,0.642,0.175,1.22,0.638,1.562c2.569,1.903,0.849,5.516,0.243,6.603
				c-1.096,1.006-2.248,1.709-3.428,2.085c-2.646,0.848-4.973-0.087-5.982-0.622C129.119,40.572,128.56,35.976,128,31.381
				L128,31.381z M131.243,58.024c1.637-1.544,3.194-2.563,4.647-3.024c1.978-0.631,3.079,0.018,3.124,0.044
				c0.209,0.14,0.419,0.21,0.68,0.246c1.816,0.244,2.663,1.578,2.788,1.786c0.123,0.426,0.031,1.919-0.192,3.119
				c-0.015,0.076-0.024,0.15-0.03,0.229c-0.013,0.168-0.046,0.269-0.065,0.315c-0.421,0.41-0.69,0.951-0.744,1.505
				c-0.062,0.641,0.175,1.222,0.638,1.573c2.57,1.955,0.847,5.532,0.244,6.607c-1.098,0.986-2.249,1.67-3.429,2.034
				c-2.646,0.813-4.973-0.12-5.981-0.655C132.363,67.21,131.803,62.618,131.243,58.024L131.243,58.024z"/>
		</g>
	</g>
	<path fill="#151928" d="M84.812,15.876c0.849,2.263-0.298,4.785-2.56,5.634l-6.958,2.61c-2.262,0.849-4.783-0.297-5.633-2.56l0,0
		c-0.85-2.264,0.297-4.786,2.56-5.632l6.956-2.61C81.441,12.469,83.963,13.614,84.812,15.876L84.812,15.876z"/>
	<g>
		<g>
			<path fill="#595A5A" d="M43.889,130.603c3.034-5.526,8.78-14.001,19.312-24.302c17.561-17.178,52.373-43.062,118.481-68.828
				c8.915-3.476,17.747-5.237,26.244-5.237c26.665,0,43.81,16.668,48.457,32.156c3.424,11.411,0.085,21.912-8.93,28.266
				c-5.172-1.869-33.173-11.318-70.361-11.318C141.865,81.339,90.783,90.057,43.889,130.603z"/>
			<path fill="#1C223F" d="M207.927,33.947c11.526,0,22.239,3.339,30.981,9.657c7.782,5.625,13.406,13.182,15.837,21.279
				c3.155,10.519,0.398,19.845-7.559,25.853c-6.996-2.483-33.896-11.107-70.094-11.107c-46.643,0-89.749,14.688-125.768,42.671
				c3.236-4.347,7.59-9.446,13.41-15.105c17.466-16.983,52.038-42.586,117.567-68.127C191.022,35.669,199.643,33.947,207.927,33.947
				 M207.927,30.524c-8.267,0-17.291,1.622-26.867,5.354C51.958,86.196,39.093,137.207,39.093,137.207
				C85.506,93.991,136.922,83.05,177.094,83.05c41.215,0,70.595,11.518,70.595,11.518C274.862,76.65,252.043,30.524,207.927,30.524
				L207.927,30.524z"/>
		</g>
		
			<path fill="none" stroke="#151928" stroke-width="0.5" stroke-linecap="round" stroke-linejoin="round" stroke-miterlimit="10" d="
			M140.3,81.882c0,0,76.147-40.939,100.089,7.424"/>
		
			<path fill="none" stroke="#151928" stroke-width="0.5" stroke-linecap="round" stroke-linejoin="round" stroke-miterlimit="10" d="
			M106.936,91.948c0,0,125.025-78.911,137.158-2.203"/>
		
			<path fill="none" stroke="#151928" stroke-width="0.5" stroke-linecap="round" stroke-linejoin="round" stroke-miterlimit="10" d="
			M160.783,79.613c0,0,54.09-11.806,68.481,6.322"/>
		
			<path fill="none" stroke="#151928" stroke-width="0.5" stroke-linecap="round" stroke-linejoin="round" stroke-miterlimit="10" d="
			M85.918,100.682c0,0,164.587-111.828,162.055-9.354"/>
		
			<path fill="none" stroke="#151928" stroke-width="0.5" stroke-linecap="round" stroke-linejoin="round" stroke-miterlimit="10" d="
			M55.198,118.619c0,0,192.803-154.193,197.997-32.684"/>
	</g>
</g>
<g>
	<path opacity="0.7" fill="#FFFFFF" enable-background="new    " d="M159.064,314.191c-0.198,0-12.993,0.812-21.219-0.583
		c-11.153-1.891-15.85-6.85-15.515-9.038c0.335-2.188,2.382-3.688,4.566-3.354c0,0,2.424,3.287,12.15,5.469
		c10.382,2.328,20.619-0.459,20.619-0.459c2.188,0.334,3.688,2.378,3.354,4.565C162.719,312.774,161.011,314.191,159.064,314.191z"
		/>
</g>
</svg>
