<?xml version="1.0" encoding="utf-8"?>
<!-- Generator: Adobe Illustrator 15.1.0, SVG Export Plug-In . SVG Version: 6.00 Build 0)  -->
<!DOCTYPE svg PUBLIC "-//W3C//DTD SVG 1.1//EN" "http://www.w3.org/Graphics/SVG/1.1/DTD/svg11.dtd">
<svg version="1.1" id="Layer_1" xmlns="http://www.w3.org/2000/svg" xmlns:xlink="http://www.w3.org/1999/xlink" x="0px" y="0px"
	 width="297.641px" height="352.012px" viewBox="0 0 297.641 352.012" enable-background="new 0 0 297.641 352.012"
	 xml:space="preserve">
<g>
	<path fill="#FFFFFF" d="M156.047,339.452c-73.805,0-133.849-60.043-133.849-133.847c0-73.808,60.044-133.853,133.849-133.853
		s133.848,60.044,133.848,133.853C289.894,279.409,229.851,339.452,156.047,339.452z"/>
	<path fill="#231F20" d="M156.047,77.092c70.861,0,128.51,57.651,128.51,128.514c0,70.861-57.647,128.511-128.51,128.511
		S27.535,276.468,27.535,205.605C27.534,134.743,85.185,77.092,156.047,77.092 M156.047,66.417
		c-76.87,0-139.188,62.316-139.188,139.188c0,76.867,62.316,139.185,139.188,139.185c76.869,0,139.186-62.317,139.186-139.185
		C295.232,128.734,232.916,66.417,156.047,66.417L156.047,66.417z"/>
	<g>
		<path fill="#2D2D2D" d="M161.875,269.124c-0.269,0-0.537-0.001-0.81-0.004c-3.315-0.038-5.975-2.759-5.938-6.072
			c0.039-3.292,2.719-5.937,6.004-5.937c0.022,0,0.045,0,0.068,0c19.758,0.189,25.596-9.688,27.043-13.17L166.22,163.09
			c-0.871-3.199,1.016-6.5,4.215-7.372c3.193-0.869,6.5,1.015,7.373,4.215l22.494,82.586c0.262,0.955,0.281,1.961,0.057,2.926
			C200.136,246.421,194.525,269.123,161.875,269.124z"/>
	</g>
	<circle fill="#2D2D2D" cx="105.335" cy="179.649" r="12.933"/>
	<circle fill="#2D2D2D" cx="232.557" cy="175.64" r="12.933"/>
	<g>
		<path fill="#2D2D2D" d="M75.193,154.815c-0.018,0-0.034,0-0.052,0c-2.211-0.028-3.979-1.844-3.952-4.054
			c0.01-0.739,0.616-18.103,34.146-18.103c2.211,0,4.003,1.792,4.003,4.003s-1.792,4.003-4.003,4.003
			c-24.894,0-26.14,10.097-26.142,10.199C79.166,153.056,77.38,154.815,75.193,154.815z"/>
	</g>
	<g>
		<path fill="#2D2D2D" d="M255.756,147.985c-0.908,0-1.818-0.306-2.566-0.934c-19.088-15.984-26.521-9.042-26.588-8.966
			c-1.442,1.677-3.971,1.867-5.645,0.427c-1.679-1.441-1.869-3.969-0.429-5.645c0.482-0.562,12.097-13.481,37.8,8.046
			c1.694,1.419,1.918,3.945,0.498,5.639C258.035,147.497,256.898,147.985,255.756,147.985z"/>
	</g>
	<path fill="#2D2D2D" d="M63.605,200.557v20.398H52.622l-6.52-20.398c0,0-25.782-19.801-16.292,29.9l-3.899,25.604
		c0,0-51.146-155.873-0.6-192.628c0,0,24.292-19.25,43.544-3.5c1.308-5.253,7.121-73.505,113.767-56.007
		c0,0,179.75-26.752,55.699,102.764c0,0-66.201-64.259-162.465,5.75C75.856,112.441,53.104,118.901,63.605,200.557z"/>
	<g>
		<path opacity="0.7" fill="#2D2D2D" enable-background="new    " d="M163.064,302.944c-0.198,0-12.993,0.812-21.219-0.583
			c-11.153-1.891-15.85-6.85-15.515-9.038c0.335-2.188,2.382-3.688,4.566-3.354c0,0,2.424,3.287,12.15,5.469
			c10.382,2.328,20.619-0.459,20.619-0.459c2.188,0.334,3.688,2.378,3.354,4.565C166.719,301.527,165.011,302.944,163.064,302.944z"
			/>
	</g>
</g>
<path fill="#2D2D2D" d="M143.696,283.131"/>
</svg>
